<?xml version="1.0" encoding="UTF-8"?>
<svg xmlns="http://www.w3.org/2000/svg" xmlns:xlink="http://www.w3.org/1999/xlink" width="64pt" height="64pt" viewBox="0 0 64 64" version="1.1">
<g id="surface1">
<path style=" stroke:none;fill-rule:nonzero;fill:rgb(100%,100%,100%);fill-opacity:1;" d="M 30.878906 63.78125 C 29.957031 63.753906 29.222656 63.683594 27.652344 63.492188 C 27.300781 63.449219 26.929688 63.390625 26.828125 63.367188 C 26.726562 63.332031 26.398438 63.285156 26.105469 63.253906 C 25.8125 63.214844 25.535156 63.167969 25.492188 63.148438 C 25.449219 63.125 25.171875 63.054688 24.878906 62.992188 C 24.585938 62.929688 24.191406 62.832031 24 62.773438 C 23.808594 62.71875 23.316406 62.582031 22.90625 62.476562 C 22.496094 62.367188 22.136719 62.261719 22.105469 62.238281 C 22.078125 62.21875 21.886719 62.148438 21.679688 62.078125 C 21.476562 62.015625 21.207031 61.921875 21.082031 61.863281 C 20.953125 61.808594 20.832031 61.761719 20.804688 61.761719 C 20.746094 61.761719 19.988281 61.472656 19.761719 61.359375 C 19.347656 61.164062 18.773438 60.910156 18.582031 60.851562 C 18.46875 60.816406 18.363281 60.769531 18.347656 60.746094 C 18.332031 60.730469 17.972656 60.539062 17.546875 60.324219 C 17.121094 60.105469 16.714844 59.894531 16.640625 59.839844 C 16.566406 59.792969 16.316406 59.648438 16.078125 59.519531 C 15.84375 59.390625 15.460938 59.164062 15.226562 59.011719 C 14.191406 58.339844 13.152344 57.644531 12.933594 57.464844 C 12.875 57.417969 12.652344 57.242188 12.4375 57.078125 C 11.066406 56.015625 9.128906 54.175781 8.054688 52.90625 C 7.921875 52.753906 7.71875 52.515625 7.59375 52.378906 C 7.476562 52.246094 7.265625 51.980469 7.113281 51.785156 C 6.96875 51.59375 6.746094 51.308594 6.613281 51.140625 C 6.046875 50.433594 5.078125 48.953125 4.40625 47.785156 C 2.078125 43.710938 0.703125 39.195312 0.308594 34.375 C 0.230469 33.367188 0.230469 30.613281 0.316406 29.625 C 0.714844 24.871094 2 20.585938 4.238281 16.558594 C 5.703125 13.9375 7.371094 11.734375 9.546875 9.542969 C 13.210938 5.863281 17.601562 3.214844 22.71875 1.605469 C 23.429688 1.382812 25.476562 0.890625 26.398438 0.71875 C 29.894531 0.0859375 33.984375 0.0742188 37.464844 0.699219 C 40.054688 1.164062 42.535156 1.914062 44.90625 2.960938 C 47.367188 4.042969 50.40625 5.9375 52.347656 7.589844 C 55.386719 10.175781 57.785156 13.050781 59.601562 16.265625 C 61.128906 18.988281 62.105469 21.433594 62.847656 24.40625 C 63.503906 27.039062 63.753906 29.171875 63.753906 32.054688 C 63.75 36.03125 63.113281 39.503906 61.710938 43.269531 C 60.683594 46.039062 58.894531 49.210938 57.09375 51.488281 C 55.167969 53.921875 52.625 56.363281 50.453125 57.867188 C 50.203125 58.039062 49.929688 58.230469 49.839844 58.292969 C 49.09375 58.820312 47.632812 59.683594 46.441406 60.296875 C 46.039062 60.511719 45.675781 60.703125 45.636719 60.734375 C 45.605469 60.761719 45.476562 60.816406 45.359375 60.851562 C 45.242188 60.890625 44.921875 61.03125 44.652344 61.15625 C 44.113281 61.414062 42.992188 61.851562 42.347656 62.058594 C 42.128906 62.128906 41.898438 62.207031 41.839844 62.234375 C 41.617188 62.339844 40.074219 62.761719 39.171875 62.960938 C 38.851562 63.035156 38.527344 63.113281 38.453125 63.148438 C 38.378906 63.171875 38.105469 63.222656 37.839844 63.253906 C 37.578125 63.285156 37.273438 63.332031 37.171875 63.359375 C 36.992188 63.40625 35.941406 63.535156 34.398438 63.703125 C 33.503906 63.796875 32.277344 63.824219 30.878906 63.78125 Z M 30.773438 51.894531 C 31.820312 51.785156 32.246094 51.707031 33.007812 51.492188 C 35.03125 50.929688 36.96875 49.945312 38.464844 48.734375 C 40.894531 46.769531 42.601562 44.25 43.535156 41.253906 C 43.898438 40.078125 44.121094 38.46875 44.128906 37.011719 C 44.128906 35.214844 43.886719 33.722656 43.347656 32.1875 C 43.207031 31.777344 43.0625 31.359375 43.035156 31.257812 C 42.921875 30.902344 42.085938 29.339844 41.667969 28.714844 C 41.429688 28.363281 41.046875 27.835938 40.816406 27.542969 C 40.363281 26.976562 39.449219 26 39.300781 25.921875 C 39.230469 25.878906 37.3125 27.769531 28.617188 36.464844 C 22.792969 42.289062 18.027344 47.070312 18.027344 47.089844 C 18.027344 47.128906 19.03125 48.121094 19.332031 48.382812 C 20.640625 49.5 22.511719 50.59375 23.957031 51.089844 C 25.464844 51.609375 26.25 51.785156 27.464844 51.894531 C 27.863281 51.925781 28.222656 51.960938 28.265625 51.972656 C 28.539062 52.027344 29.9375 51.984375 30.773438 51.894531 Z M 45.921875 16.832031 C 45.921875 16.746094 44.8125 15.695312 44.25 15.242188 C 43.457031 14.613281 42.464844 13.972656 41.621094 13.550781 C 40.667969 13.078125 40.40625 12.96875 39.472656 12.671875 C 37.953125 12.179688 37.371094 12.070312 35.902344 11.988281 C 33.914062 11.878906 32.222656 12.042969 30.789062 12.484375 C 30.5 12.574219 30.085938 12.703125 29.867188 12.769531 C 29.371094 12.921875 29.082031 13.039062 28.375 13.382812 C 27.488281 13.8125 27.5625 13.765625 26.261719 14.609375 C 26.019531 14.761719 25.78125 14.933594 25.726562 14.996094 C 25.667969 15.054688 25.503906 15.1875 25.355469 15.285156 C 24.988281 15.53125 23.683594 16.832031 23.152344 17.488281 C 22.917969 17.78125 22.511719 18.339844 22.261719 18.730469 C 21.8125 19.414062 21.0625 20.8125 20.964844 21.148438 C 20.933594 21.230469 20.8125 21.585938 20.6875 21.921875 C 20.273438 23.0625 20.222656 23.265625 19.96875 24.933594 C 19.839844 25.78125 19.835938 25.925781 19.855469 27.226562 C 19.882812 28.523438 19.894531 28.683594 20.074219 29.652344 C 20.175781 30.222656 20.320312 30.886719 20.390625 31.121094 C 20.652344 31.996094 21.082031 33.066406 21.5 33.855469 C 22.230469 35.265625 22.988281 36.308594 24.046875 37.402344 L 24.714844 38.085938 L 35.316406 27.484375 C 41.148438 21.652344 45.921875 16.859375 45.921875 16.832031 Z M 45.921875 16.832031 "/>
</g>
</svg>
